HIERARCHY
ROOT Hips
{
    OFFSET 0.0 0.0 0.0
    CHANNELS 6 Xposition Yposition Zposition Zrotation Xrotation Yrotation
    JOINT LeftHipJoint
    {
        OFFSET 0.1 0.0 0.0
        CHANNELS 3 Zrotation Xrotation Yrotation
        JOINT LeftUpLeg
        {
            OFFSET 119.20732255768172 0.0 0.0
            CHANNELS 3 Zrotation Xrotation Yrotation
            JOINT LeftLeg
            {
                OFFSET 0.0 0.0 -418.5223670080593
                CHANNELS 3 Zrotation Xrotation Yrotation
                JOINT LeftFoot
                {
                    OFFSET 0.0 0.0 -406.2559653053644
                    CHANNELS 3 Zrotation Xrotation Yrotation
                    End Site
                    {
                        OFFSET 0.0 -0.1 0.0
                    }
                }
            }
        }
    }
    JOINT LowerBack
    {
        OFFSET 0.0 0.0 0.1
        CHANNELS 3 Zrotation Xrotation Yrotation
        JOINT Spine
        {
            OFFSET 0.0 0.0 219.40949942417566
            CHANNELS 3 Zrotation Xrotation Yrotation
            JOINT Spine1
            {
                OFFSET 0.0 0.0 255.2651220699739
                CHANNELS 3 Zrotation Xrotation Yrotation
                JOINT LeftShoulder
                {
                    OFFSET 0.1 0.0 0.0
                    CHANNELS 3 Zrotation Xrotation Yrotation
                    JOINT LeftArm
                    {
                        OFFSET 139.01793727492395 0.0 0.0
                        CHANNELS 3 Zrotation Xrotation Yrotation
                        JOINT LeftForeArm
                        {
                            OFFSET 258.14172763583804 0.0 0.0
                            CHANNELS 3 Zrotation Xrotation Yrotation
                            JOINT LeftHand
                            {
                                OFFSET 239.36303673665344 0.0 0.0
                                CHANNELS 3 Zrotation Xrotation Yrotation
                                End Site
                                {
                                    OFFSET 0.1 0.0 0.0
                                }
                            }
                        }
                    }
                }
                JOINT Neck
                {
                    OFFSET 0.0 0.0 0.1
                    CHANNELS 3 Zrotation Xrotation Yrotation
                    JOINT Neck1
                    {
                        OFFSET 0.0 0.0 108.64757595866789
                        CHANNELS 3 Zrotation Xrotation Yrotation
                        End Site
                        {
                            OFFSET 0.0 0.0 113.7283032786169
                        }
                    }
                }
                JOINT RightShoulder
                {
                    OFFSET -0.1 0.0 0.0
                    CHANNELS 3 Zrotation Xrotation Yrotation
                    JOINT RightArm
                    {
                        OFFSET -139.01793727492395 0.0 0.0
                        CHANNELS 3 Zrotation Xrotation Yrotation
                        JOINT RightForeArm
                        {
                            OFFSET -258.14172763583804 0.0 0.0
                            CHANNELS 3 Zrotation Xrotation Yrotation
                            JOINT RightHand
                            {
                                OFFSET -239.36303673665344 0.0 0.0
                                CHANNELS 3 Zrotation Xrotation Yrotation
                                End Site
                                {
                                    OFFSET -0.1 0.0 0.0
                                }
                            }
                        }
                    }
                }
            }
        }
    }
    JOINT RightHipJoint
    {
        OFFSET -0.1 0.0 0.0
        CHANNELS 3 Zrotation Xrotation Yrotation
        JOINT RightUpLeg
        {
            OFFSET -119.20732255768172 0.0 0.0
            CHANNELS 3 Zrotation Xrotation Yrotation
            JOINT RightLeg
            {
                OFFSET 0.0 0.0 -418.5223670080593
                CHANNELS 3 Zrotation Xrotation Yrotation
                JOINT RightFoot
                {
                    OFFSET 0.0 0.0 -406.2559653053644
                    CHANNELS 3 Zrotation Xrotation Yrotation
                    End Site
                    {
                        OFFSET 0.0 -0.1 0.0
                    }
                }
            }
        }
    }
}
MOTION
Frames: 5
Frame Time: 0.03333333333333333
0.0 0.0 829.4182617930519 20.261946904499325 -5.96920796475691 8.938257637961181 0.0 0.0 1.987846675914698e-16 0.4755060192604404 4.019649489190125 -6.429947441050257 0.06968970592542485 14.175003946096632 1.7874615230680482 1.3793457181406746e-33 1.987846675914698e-16 -7.951386703658792e-16 0.0 0.0 1.987846675914698e-16 -0.7503109816595209 -6.367838135284717 -12.86793206621599 -8.698341610508566 2.7358590664725307e-16 -9.759865252603286e-16 0.0 0.0 -1.987846675914698e-16 -96.16704736145978 -60.94563513376286 -53.146533009936576 -74.14265889810046 1.9032892558858616e-15 1.4379497746550146e-15 3.1805546814635168e-15 0.0 0.0 0.0 0.0 -1.987846675914698e-16 13.038506999267353 -3.738573002605058 -1.024428971674785 0.0 0.0 -1.987846675914698e-16 -6.113720878384563 18.99213402058017 -68.63166640440495 22.6551900376771 -8.49930448852156e-15 -1.9466240523072913e-15 0.0 0.0 -2.2860236773019026e-15 0.0 0.0 1.987846675914698e-16 -0.08243834432380462 -0.6741976094686979 -5.012993517379428 0.5744402969478618 18.839694559364844 -0.25114591393355473 -3.1805546814635168e-15 0.0 0.0
0.0 0.0 829.4182617930519 20.319917213596273 -5.904057123617495 8.930227861478858 0.0 0.0 0.0 0.47457085922474856 4.005219703910305 -6.423785226465677 0.07370816344438764 14.123809707094537 1.7823004360547503 -5.517382872562698e-33 -1.5902773407317584e-15 -3.975693351829396e-16 0.0 0.0 0.0 -0.7601062715751112 -6.439728743363437 -12.85097637825908 -8.665638265116497 -5.673189003219336e-15 -1.426609441261295e-15 0.0 0.0 7.951386703658792e-16 -95.72771602971578 -60.95025332070554 -52.77242635317883 -74.2624433492364 6.33928367879316e-16 4.799795094679407e-16 0.0 0.0 0.0 0.0 0.0 7.951386703658792e-16 12.937559046689055 -3.6840468656753944 -1.0185376521042433 0.0 0.0 7.951386703658792e-16 -6.324694736706823 18.90806907343872 -68.53367641797504 22.731096801961847 1.0890028985116642e-15 -2.6520302135305756e-15 1.1586504032381667e-31 -1.590277340731758e-15 8.34895603884173e-15 0.0 0.0 0.0 -0.08591428786461996 -0.7027366307722505 -5.032098378775017 0.5707731057971808 18.812218387642485 -0.20669178490747755 -2.069018577211012e-33 -1.9878466759146985e-16 -1.1927080055488192e-15
0.0 0.0 829.4182617930519 20.353268804088454 -5.88801076148913 8.937703382116187 -3.1805546814635168e-15 -1.987846675914698e-16 -1.987846675914698e-16 0.4677606172441214 3.923389745188684 -6.437612728882534 0.08130297053532463 14.258199727090318 1.8110489546596018 0.0 0.0 0.0 -3.1805546814635168e-15 -1.987846675914698e-16 -1.987846675914698e-16 -0.7675084112333911 -6.46194685175384 -12.902448980729039 -8.648502863045335 1.6848597056446236e-15 1.2740243841056382e-16 0.0 0.0 5.963540027744094e-16 -95.3718318672536 -61.09631532364848 -52.493026397507585 -74.66965710278514 -1.1638022421201786e-14 2.3124373927557387e-14 3.1805546814635168e-15 -6.3611093629270335e-15 1.7655625192200634e-31 0.0 0.0 5.963540027744094e-16 12.96617068641404 -3.659960332110494 -0.9273951110987783 0.0 0.0 5.963540027744094e-16 -5.968977675041433 19.085012452546085 -68.53675586980981 22.73592286995854 3.9801672669847494e-15 3.660549567785825e-15 0.0 0.0 -2.981770013872047e-16 -3.1805546814635168e-15 -1.987846675914698e-16 -1.987846675914698e-16 -0.08858440904871781 -0.7211976535902538 -5.026809101251875 0.5873815060658271 18.832042950283522 -0.27187424631454227 -3.1805546814635168e-15 0.0 0.0
0.0 0.0 829.4182617930519 20.378801980653183 -5.842479510513252 8.930872607768835 0.0 0.0 -3.975693351829397e-16 0.4650724718460805 3.8952423270388334 -6.376665762233235 0.09996291199918089 14.394343266856968 1.718178394348392 0.0 0.0 0.0 0.0 0.0 -3.975693351829397e-16 -0.7787296820723554 -6.547051140200038 -12.918958177180208 -8.658653943398887 2.191573805522347e-16 -1.5782366422725456e-15 -3.1805546814635168e-15 1.5902773407317584e-15 -7.951386703658792e-16 -95.199237784545 -61.22573031584871 -52.370667189389465 -74.96432748914057 0.0 -0.0 0.0 0.0 0.0 -3.1805546814635168e-15 1.5902773407317584e-15 -7.951386703658792e-16 12.93024690911306 -3.59063281240978 -0.9579360365190399 -3.1805546814635168e-15 1.5902773407317584e-15 -7.951386703658792e-16 -6.3770131628665725 19.109381535399372 -68.35248152971828 22.855021532492746 3.2129138771804704e-15 7.868369168816231e-15 0.0 0.0 -2.4848083448933726e-15 0.0 0.0 -3.975693351829397e-16 -0.0880666776080004 -0.7154867788142439 -4.906665516913 0.6358131077975144 18.954293365679167 -0.46231036426810806 0.0 0.0 0.0
0.0 0.0 829.4182617930519 20.420283645728766 -5.826298191064023 8.944625465172681 0.0 0.0 -1.987846675914698e-16 0.4584067263480175 3.8547089489718904 -6.363502862944781 0.09656621508746327 14.424434726140392 1.6291991565699095 1.1034765745125397e-32 1.5902773407317584e-15 -7.951386703658792e-16 0.0 0.0 -1.987846675914698e-16 -0.7822815858196432 -6.602890501522435 -12.93349865055201 -8.67881876693537 4.156331826609955e-15 1.7108843919493994e-15 5.517382872562698e-33 -1.5902773407317582e-15 3.9756933518293955e-16 -94.85357504549484 -61.304544618477834 -52.10111990981714 -75.32624977162307 1.0291281650307355e-14 -8.127748727925741e-15 0.0 0.0 0.0 5.517382872562698e-33 -1.5902773407317582e-15 3.9756933518293955e-16 12.897954476564388 -3.5093838757814053 -0.9651498910239975 5.517382872562698e-33 -1.5902773407317582e-15 3.9756933518293955e-16 -6.530768482450837 19.153384985305753 -68.28399014097508 22.764411249952573 1.3236162142221264e-15 -1.4830962626860738e-15 0.0 0.0 2.683593012484842e-15 0.0 0.0 -1.987846675914698e-16 -0.08663147587119911 -0.7063136129533472 -4.914113699744281 0.6248458738908336 18.977488587152607 -0.46475982521386705 0.0 0.0 7.951386703658792e-16
